<?xml version="1.0" encoding="UTF-8"?>
<svg width="1536" height="1024" viewBox="0 0 1536 1024" xmlns="http://www.w3.org/2000/svg">
  <defs>
    <clipPath id="clip0_1_5">
      <rect width="1536" height="1024" fill="white"/>
    </clipPath>
    <style>
      .eye-left {
        transform-origin: 620px 480px;
        animation: blink 3.5s infinite ease-in-out;
      }
      .eye-right {
        transform-origin: 916px 480px;
        animation: blink 3.5s infinite ease-in-out;
      }

      @keyframes blink {
        0%, 48%, 52%, 100% { transform: scaleY(1); }
        50% { transform: scaleY(0.05); }
      }
      svg:hover .eye-left, svg:hover .eye-right {
        animation-play-state: paused;
      }
    </style>
  </defs>
  <g clip-path="url(#clip0_1_5)">
    <rect width="1536" height="1024" fill="transparent"/>
    <path fill="#020202" d="M495 375C498.387 376.322 501.682 377.758 504.965 379.32C518.418 385.654 531.929 391.201 546 396C546.849 396.293 547.699 396.586 548.574 396.887C551.005 397.724 553.439 398.552 555.875 399.375C556.582 399.614 557.289 399.853 558.017 400.099C561.383 401.213 564.738 402.21 568.184 403.047C571.308 403.827 574.19 404.722 577.187 405.875C581.111 407.347 585.047 408.649 589.062 409.848C632.408 423.091 691.272 445.811 714.036 488.346C721.325 502.737 723.022 515.02 718.07 530.48C717 533 717 533 715 534C715.046 532.851 715.093 531.703 715.141 530.52C715.685 511.504 709.732 495.367 697.062 481.062C694.328 478.125 694.328 478.125 691 476C690.865 476.534 690.729 477.067 690.59 477.617C687.161 489.485 679.302 498.315 668.875 504.688C654.647 512.02 638.553 513.245 623.176 509.09C604.376 502.638 591.139 490.654 581.75 473.25C578.475 466.423 576.675 459.361 575 452C574.706 450.795 574.706 450.795 574.406 449.566C573.842 446.005 573.809 442.472 573.812 438.875C573.812 438.127 573.811 437.38 573.811 436.61C573.868 430.587 574.582 424.863 576 419C575.349 418.768 574.698 418.536 574.027 418.297C570.023 416.581 566.339 414.414 562.562 412.25C554.008 407.415 545.345 403.115 536 400C534.859 403.245 533.74 406.497 532.625 409.75C532.149 411.102 532.149 411.102 531.664 412.48C521.61 442.015 525.872 475.72 539.105 503.551C549.798 524.992 565.454 543.155 585 557C585.663 557.474 586.326 557.947 587.009 558.435C601.968 569.017 617.939 577.824 634.562 585.5C694.116 613.067 734.189 661.418 757.275 722.366C761.615 734.369 765.216 746.544 768 759C769.469 754.137 770.929 749.272 772.324 744.387C783.556 705.389 801.333 669.649 828 639C828.592 638.285 829.183 637.569 829.793 636.832C843.032 620.978 860.354 608.124 878.24 598.004C879.92 597.046 881.58 596.053 883.238 595.059C890.338 590.85 897.594 587.25 905.062 583.75C927.993 572.958 949.234 560.094 968 543C968.746 542.326 969.493 541.652 970.262 540.957C992.932 519.391 1008.46 487.922 1009.41 456.57C1009.47 453.568 1009.49 450.566 1009.5 447.562C1009.5 446.851 1009.51 446.139 1009.51 445.405C1009.55 432.584 1007.99 420.311 1003.38 408.25C1002.74 406.556 1002.74 406.556 1002.09 404.828C1001.73 403.895 1001.37 402.962 1001 402C1000.67 401.01 1000.34 400.02 1000 399C980.136 408.307 980.136 408.307 961 419C961.238 420.951 961.238 420.951 961.48 422.941C963.998 445.838 960.499 467.708 946.174 486.28C940.472 493.224 933.905 498.674 926 503C925.368 503.349 924.736 503.697 924.085 504.056C910.2 511.345 893.003 513.013 877.766 509.07C874.627 507.943 871.88 506.674 869 505C868.18 504.542 867.36 504.085 866.516 503.613C857.241 497.933 850.024 490.198 846 480C845.844 477.168 845.844 477.168 846 475C834.247 483.518 826.147 498.403 822.379 512.289C821.797 516.449 821.628 520.619 821.438 524.812C821.394 525.696 821.351 526.58 821.307 527.49C821.201 529.66 821.1 531.83 821 534C815.902 528.902 815.643 521.594 815.562 514.75C815.751 494.666 826.24 479.574 840 466C840.767 465.223 841.534 464.445 842.324 463.645C883.544 424.151 945.404 409.277 998.288 392.987C1005.2 390.838 1011.65 387.929 1018.17 384.809C1025.65 381.242 1033.3 378.048 1041 375C1049.29 386.801 1053.81 401.312 1058 415C1058.29 415.922 1058.57 416.843 1058.87 417.793C1067.18 447.486 1066.12 481.054 1060 511C1059.84 511.799 1059.69 512.598 1059.53 513.421C1058.48 518.508 1056.91 523.179 1055 528C1054.51 529.361 1054.01 530.723 1053.53 532.086C1040.72 567.029 1015.54 597.613 986 620C985.014 620.78 984.028 621.56 983.012 622.363C974.619 628.982 965.883 635.06 957 641C956.346 641.439 955.692 641.878 955.018 642.331C936.326 654.826 916.687 665.78 896.9 676.428C893.71 678.157 890.534 679.913 887.359 681.672C886.257 682.279 885.155 682.886 884.02 683.511C881.873 684.694 879.73 685.882 877.59 687.076C876.627 687.604 875.664 688.132 874.672 688.676C873.817 689.149 872.962 689.623 872.081 690.111C871.051 690.551 871.051 690.551 870 691C869.34 690.67 868.68 690.34 868 690C868.75 689.322 869.5 688.644 870.273 687.945C876.257 682.513 882.07 676.972 887.75 671.219C890.233 668.77 892.825 666.515 895.496 664.277C900.37 660.138 904.485 655.241 908.734 650.484C910.649 648.385 912.599 646.365 914.625 644.375C918.295 640.755 921.649 636.914 925 633C925.907 631.945 926.815 630.891 927.723 629.836C929.787 627.435 931.847 625.03 933.902 622.621C935.821 620.374 937.749 618.137 939.691 615.91C954.685 598.616 971.708 578.584 982 558C980.7 559.308 980.7 559.308 979.373 560.643C976.125 563.909 972.874 567.171 969.622 570.433C968.221 571.839 966.82 573.246 965.421 574.655C963.398 576.69 961.371 578.722 959.344 580.754C958.729 581.374 958.114 581.994 957.48 582.633C954.44 585.674 951.351 588.599 948.092 591.406C943.574 595.311 939.385 599.507 935.188 603.75C933.968 604.975 933.968 604.975 932.723 606.226C930.146 608.815 927.573 611.407 925 614C921.607 617.42 918.211 620.836 914.812 624.25C914.048 625.023 913.283 625.796 912.495 626.593C908.422 630.684 904.256 634.576 899.883 638.342C896.916 640.954 894.148 643.748 891.375 646.562C890.784 647.157 890.193 647.752 889.583 648.365C887.72 650.241 885.859 652.12 884 654C881.545 656.482 879.086 658.961 876.625 661.438C875.806 662.269 875.806 662.269 874.97 663.117C872.122 665.983 869.213 668.714 866.15 671.35C861.537 675.342 857.259 679.634 852.969 683.969C852.133 684.808 851.298 685.647 850.437 686.512C847.789 689.172 845.144 691.836 842.5 694.5C839.013 698.013 835.523 701.523 832.031 705.031C830.851 706.224 830.851 706.224 829.647 707.44C825.556 711.55 821.377 715.46 816.982 719.243C813.375 722.441 810.013 725.885 806.625 729.312C805.856 730.085 805.087 730.858 804.295 731.654C801.861 734.1 799.43 736.55 797 739C793.795 742.232 790.586 745.461 787.375 748.688C786.293 749.782 786.293 749.782 785.19 750.898C772.785 763.362 772.785 763.362 767 766C766.375 765.37 765.751 764.74 765.107 764.092C762.754 761.721 760.398 759.352 758.04 756.985C757.027 755.967 756.014 754.948 755.003 753.927C749.627 748.506 744.26 743.17 738.346 738.324C737.68 737.669 737.68 737.669 737 737C737 736.34 737 735.68 737 735C736.105 734.594 736.105 734.594 735.193 734.179C733.024 733.013 731.637 731.874 729.919 730.13C729.344 729.552 728.77 728.974 728.178 728.379C727.568 727.755 726.957 727.131 726.328 726.488C725.366 725.519 725.366 725.519 724.385 724.529C722.335 722.462 720.292 720.388 718.25 718.312C716.221 716.256 714.191 714.201 712.158 712.149C710.895 710.874 709.635 709.597 708.378 708.316C704.717 704.614 700.919 701.156 696.979 697.753C693.756 694.898 690.742 691.846 687.719 688.781C687.061 688.12 686.403 687.458 685.725 686.776C682.949 683.984 680.179 681.186 677.409 678.388C675.368 676.33 673.325 674.274 671.281 672.219C670.67 671.599 670.058 670.979 669.428 670.34C666.409 667.304 663.34 664.39 660.096 661.596C655.576 657.69 651.386 653.494 647.187 649.25C646.374 648.433 645.561 647.616 644.723 646.774C641.278 643.313 637.839 639.846 634.399 636.379C631.873 633.834 629.343 631.292 626.812 628.75C626.048 627.977 625.283 627.204 624.495 626.407C621.111 623.008 617.708 619.695 614.068 616.568C609.164 612.344 604.647 607.753 600.094 603.156C598.681 601.738 597.269 600.32 595.856 598.902C592.907 595.939 589.962 592.972 587.016 590.006C584.581 587.554 582.145 585.104 579.707 582.656C577.888 580.829 576.071 579.001 574.257 577.17C568.152 571.041 561.97 565.141 555 560C556.93 562.766 558.865 565.527 560.802 568.288C562.098 570.14 563.389 571.996 564.68 573.852C577.713 592.524 591.473 610.879 606.902 627.652C609.139 630.156 611.223 632.748 613.312 635.375C617.165 640.144 621.322 644.44 625.692 648.723C629.066 652.036 632.21 655.456 635.277 659.051C639.439 663.76 643.76 668.506 649 672C649 672.66 649 673.32 649 674C649.535 674.206 650.07 674.412 650.621 674.625C653.979 676.566 656.388 679.217 659.062 682C663.241 686.328 663.241 686.328 668 690C667.67 690.66 667.34 691.32 667 692C666.049 691.464 665.097 690.928 664.117 690.375C656.826 686.287 649.514 682.25 642.109 678.371C605.386 659.105 570.271 637.383 539 610C538.48 609.546 537.96 609.092 537.424 608.625C518.219 591.759 502.622 572.8 491 550C490.491 549.004 490.491 549.004 489.973 547.987C477.573 523.35 471.552 495.563 471.687 468.062C471.689 467.295 471.691 466.528 471.693 465.738C471.744 452.973 472.438 440.539 475 428C475.156 427.224 475.311 426.449 475.472 425.65C479.162 408.107 485.873 390.424 495 375Z"/>
    <path fill="#010101" d="M451 255C454.983 256.46 458.432 258.379 462.063 260.562C481.948 272.17 503.9 279.843 526 286C535.552 288.684 545.024 291.553 554.477 294.566C558.12 295.727 561.775 296.841 565.438 297.938C578.08 301.824 590.58 306.153 602.664 311.543C605.353 312.717 608.046 313.81 610.777 314.879C634.802 324.446 658.428 338.368 679 354C680.285 354.941 681.571 355.88 682.859 356.816C697.352 367.419 710.5 379.121 723 392C721.01 389.325 719.008 386.661 717 384C716.459 383.279 715.917 382.559 715.359 381.816C711.523 376.788 707.443 372.059 703.172 367.395C701.31 365.342 699.527 363.25 697.75 361.125C684.46 345.985 667.618 334.184 651 323C652 321 652 321 655.078 319.887C656.466 319.477 657.857 319.078 659.25 318.688C660.01 318.471 660.77 318.254 661.553 318.031C675.607 314.093 689.767 310.931 704.125 308.312C705.219 308.11 706.313 307.908 707.441 307.699C727.44 304.167 747.219 303.559 767.5 303.562C768.543 303.561 768.543 303.561 769.607 303.56C791.776 303.54 813.227 304.516 835 309C836.1 309.214 837.199 309.427 838.332 309.647C844.932 310.931 851.474 312.383 858 314C858.882 314.217 859.763 314.434 860.671 314.657C868.966 316.718 877.031 318.891 885 322C881.335 324.955 877.618 327.832 873.875 330.688C855.213 345.022 837.658 360.515 823 379C821.32 381.068 819.628 383.128 817.938 385.188C817.183 386.109 816.429 387.031 815.652 387.98C815.107 388.647 814.562 389.313 814 390C817.482 387.312 820.576 384.479 823.625 381.312C828.781 376.111 834.273 371.553 840 367C841.099 366.089 842.197 365.176 843.293 364.262C858.1 352.006 874.325 341.53 891 332C891.745 331.571 892.491 331.142 893.259 330.701C926.059 311.93 961.661 299.361 997.992 289.344C1026.81 281.393 1055.77 272.222 1081.18 256.031C1083 255 1083 255 1085 255C1085.36 262.589 1084.05 269.161 1082.19 276.5C1081.93 277.576 1081.67 278.653 1081.4 279.762C1073.95 309.952 1059.76 336.189 1032.63 352.688C1022.57 358.603 1012.56 363.063 1001.26 366.07C998.422 366.88 995.83 367.831 993.125 369C988.967 370.746 984.751 371.89 980.375 372.938C972.124 374.922 964.055 377.334 956 380C955.069 380.305 954.139 380.611 953.18 380.925C909.781 395.251 869.483 414.996 834 444C833.463 444.438 832.926 444.876 832.373 445.327C815.568 459.104 800.607 474.041 787 491C785.994 492.237 784.987 493.474 783.98 494.711C778.659 501.272 773.449 507.799 769 515C764.998 513.666 764.301 511.82 762 508.312C754.651 497.375 746.488 487.275 737.48 477.664C735.449 475.482 733.492 473.271 731.563 471C723.508 461.753 714.674 453.523 705 446C704.407 445.53 703.813 445.06 703.202 444.576C687.379 432.052 670.757 420.613 653 411C651.815 410.342 650.63 409.683 649.445 409.023C640.52 404.107 631.352 399.878 621.992 395.858C620.323 395.139 618.661 394.405 617 393.668C600.612 386.546 583.395 381.435 566.291 376.363C511.464 360.102 511.464 360.102 491 344C490.281 343.435 489.561 342.871 488.82 342.289C478.858 334.032 472.205 323.19 466 312C465.666 311.407 465.332 310.814 464.989 310.203C461.79 304.209 459.887 297.862 457.938 291.375C457.588 290.219 457.238 289.064 456.877 287.873C450.418 266.256 450.418 266.256 451 255Z"/>
    <path fill="#020202" d="M747 522C751.407 523.552 753.666 527.036 756.375 530.625C756.858 531.253 757.341 531.881 757.839 532.528C759.234 534.346 760.619 536.171 762 538C762.677 538.892 763.354 539.784 764.051 540.703C765.376 542.462 766.69 544.23 768 546C772.912 541.387 776.694 536.157 780.627 530.707C785.365 524.249 785.365 524.249 789 522C793.896 529.688 798.551 537.517 803.062 545.438C803.814 546.715 803.814 546.715 804.581 548.019C807.993 554.094 807.993 554.094 808.023 558.234C806.852 561.401 805.407 563.981 803.562 566.812C802.833 567.957 802.105 569.103 801.379 570.25C800.992 570.856 800.606 571.462 800.208 572.086C787.95 591.516 778.534 612.136 769 633C768.34 633 767.68 633 767 633C766.657 632.17 766.314 631.34 765.961 630.484C755.518 605.696 742.936 581.403 728 559C728.209 553.982 731.125 549.81 733.562 545.562C734.007 544.776 734.452 543.989 734.91 543.178C736.266 540.781 737.632 538.39 739 536C739.814 534.569 740.628 533.138 741.441 531.707C743.286 528.467 745.14 525.232 747 522Z"/>
    <path fill="#262627" d="M829 376C829.66 376.33 830.32 376.66 831 377C824.07 383.93 817.14 390.86 810 398C809.67 397.01 809.34 396.02 809 395C809.857 394.215 810.714 393.43 811.598 392.621C817.515 387.189 823.384 381.747 829 376Z"/>
    <path fill="#E0E1E2" d="M818 384C818.99 384.33 819.98 384.66 821 385C818.69 387.31 816.38 389.62 814 392C814 388.092 815.506 386.884 818 384Z"/>

    <!-- Left Eye - correctly positioned inside left eye socket area (~575-665, 440-520) -->
    <g class="eye-left">
      <!-- Eye white -->
      <ellipse fill="white" cx="620" cy="480" rx="48" ry="35"/>
      <!-- Pupil -->
      <ellipse fill="#020202" cx="620" cy="480" rx="22" ry="26"/>
      <!-- Iris ring -->
      <ellipse fill="none" stroke="#3a2a1a" stroke-width="3" cx="620" cy="480" rx="22" ry="26"/>
      <!-- Eye highlight -->
      <ellipse fill="white" cx="630" cy="470" rx="7" ry="5"/>
    </g>

    <!-- Right Eye - correctly positioned inside right eye socket area (~870-960, 440-520) -->
    <g class="eye-right">
      <!-- Eye white -->
      <ellipse fill="white" cx="916" cy="480" rx="48" ry="35"/>
      <!-- Pupil -->
      <ellipse fill="#020202" cx="916" cy="480" rx="22" ry="26"/>
      <!-- Iris ring -->
      <ellipse fill="none" stroke="#3a2a1a" stroke-width="3" cx="916" cy="480" rx="22" ry="26"/>
      <!-- Eye highlight -->
      <ellipse fill="white" cx="926" cy="470" rx="7" ry="5"/>
    </g>
  </g>
</svg>